<?xml version="1.0" encoding="utf-8"?>
<svg xmlns="http://www.w3.org/2000/svg" xmlns:xlink="http://www.w3.org/1999/xlink" version="1.1" id="Layer_1" x="0px" y="0px" viewBox="0 0 24 24" style="enable-background:new 0 0 24 24;" xml:space="preserve">
<style type="text/css">
	.st0{fill:none;stroke:#303C42;stroke-linecap:round;stroke-linejoin:round;}
	.st1{fill:none;stroke:#303C42;stroke-linejoin:round;}
</style>
<title>Google Play</title>
<g id="Google_Play">
	<g id="_Group_">
		<path id="_Path_" class="st0" d="M22.2,11.6c-5-2.8-15-8.3-20-11C2.2,0.5,2.1,0.5,2,0.5C1.7,0.5,1.5,0.7,1.5,1v22    c0,0.3,0.2,0.5,0.5,0.5c0.1,0,0.2,0,0.2-0.1c5-2.7,15-8.2,20-11c0.2-0.1,0.3-0.4,0.2-0.6C22.4,11.7,22.3,11.6,22.2,11.6L22.2,11.6    z" style="fill: none; stroke: #303C42; stroke-linecap: round; stroke-linejoin: round;"/>
		<line id="_Path_2" class="st1" x1="2.2" y1="0.6" x2="16.9" y2="15.4" style="fill: none; stroke: #303C42; stroke-linejoin: round;"/>
		<line id="_Path_3" class="st1" x1="2.2" y1="23.4" x2="16.9" y2="8.6" style="fill: none; stroke: #303C42; stroke-linejoin: round;"/>
	</g>
</g>

	<metadata>
		<rdf:RDF xmlns:rdf="http://www.w3.org/1999/02/22-rdf-syntax-ns#" xmlns:rdfs="http://www.w3.org/2000/01/rdf-schema#" xmlns:dc="http://purl.org/dc/elements/1.1/">
			<rdf:Description about="https://iconscout.com/legal#licenses" dc:title="logo; brand; brands; logos; playstore; google" dc:description="logo; brand; brands; logos; playstore; google" dc:publisher="Iconscout" dc:date="2017-02-21" dc:format="image/svg+xml" dc:language="en">
				<dc:creator>
					<rdf:Bag>
						<rdf:li>Alpár - Etele Méder</rdf:li>
					</rdf:Bag>
				</dc:creator>
			</rdf:Description>
		</rdf:RDF>
    </metadata></svg>
